<?xml version="1.0" encoding="utf-8"?>
<!-- Generator: Adobe Illustrator 26.0.0, SVG Export Plug-In . SVG Version: 6.00 Build 0)  -->
<svg version="1.2" baseProfile="tiny" id="图层_1"
	 xmlns="http://www.w3.org/2000/svg" xmlns:xlink="http://www.w3.org/1999/xlink" x="0px" y="0px" viewBox="0 0 1000 1000"
	 overflow="visible" xml:space="preserve">
<polygon stroke="#000000" stroke-miterlimit="10" points="718.41,151.57 718.41,666.59 769.31,631.57 766.32,187.5 "/>
<polygon stroke="#000000" stroke-miterlimit="10" points="766.32,385.84 333.49,65.6 332.97,120.61 720.5,408.71 "/>
<polygon stroke="#000000" stroke-miterlimit="10" points="764.82,430.76 332.14,746.77 332.48,688.32 727.59,402.42 "/>
<polygon stroke="#000000" stroke-miterlimit="10" points="258.39,602.62 694.45,927.81 697.08,872.29 258.78,546.04 "/>
<line fill="none" stroke="#000000" stroke-width="5" stroke-linecap="square" stroke-linejoin="round" x1="618.21" y1="904.49" x2="179.64" y2="575.91"/>
<line fill="none" stroke="#000000" stroke-width="5" stroke-linecap="square" stroke-linejoin="round" x1="820.22" y1="397.82" x2="432.18" y2="107.02"/>
<polygon stroke="#000000" stroke-miterlimit="10" points="291.72,313.98 291.72,829 240.82,793.98 243.81,349.91 "/>
<polygon stroke="#000000" stroke-miterlimit="10" points="576.18,38.5 576.18,800.55 621.09,829 621.09,69.16 "/>
<polygon stroke="#000000" stroke-miterlimit="10" points="477.37,183.72 477.37,960 432.45,929.9 432.45,183.72 "/>
<line fill="none" stroke="#000000" stroke-width="5" stroke-linecap="square" stroke-linejoin="round" x1="791.77" y1="233.13" x2="791.77" y2="698.75"/>
<line fill="none" stroke="#000000" stroke-width="5" stroke-linecap="square" stroke-linejoin="round" x1="219.86" y1="290.02" x2="219.86" y2="755.64"/>
<g>
	<polygon stroke="#000000" stroke-miterlimit="10" points="681.76,258 681.73,235.38 247.15,547.88 261.85,560.91 	"/>
	<polygon stroke="#000000" stroke-miterlimit="10" points="269.25,567.46 282.91,579.57 681.8,291.25 681.77,269.87 	"/>
</g>
</svg>
